<?xml version="1.0" encoding="utf-8"?>
<svg version="1.1" id="Layer_1" xmlns="http://www.w3.org/2000/svg" x="0px" y="0px" width="100%" viewBox="0 0 665 520" enable-background="new 0 0 665 520">
  <path opacity="1.000000" stroke="none" d="M 84.505 348.265 C 84.779 347.936 84.776 347.882 84.776 347.882 C 84.754 347.832 85.066 347.919 85.066 347.919 C 80.25 341.654 81.844 335.419 85.336 329.24 C 86.726 327.904 87.513 326.947 88.3 325.99 C 99.401 317.68 111.988 321.465 116.967 334.176 C 129.612 335.017 142.18 335.167 154.749 335.267 C 162.859 335.332 170.97 335.325 179.08 335.35 C 188.661 335.514 197.336 335.438 206.01 335.362 C 221.271 335.504 235.628 335.445 249.985 335.385 C 257.571 335.521 264.264 335.441 270.958 335.362 C 272.897 336.295 274.597 336.851 274.847 337.792 C 275.328 339.603 274.987 341.631 274.987 344.029 C 268.444 344.029 262.393 344.029 256.343 344.029 C 249.747 343.934 243.842 343.985 237.937 344.036 C 237.012 343.699 236.765 343.776 236.518 343.852 C 235.075 343.775 234.376 343.911 233.678 344.047 C 229.279 343.933 225.573 344.038 221.868 344.143 C 211.95 344.005 202.921 344.086 193.893 344.166 C 191.265 344.018 189.556 344.089 187.848 344.16 C 186.558 344.051 186.108 344.122 185.658 344.192 C 181.628 344.044 178.258 344.105 174.887 344.165 C 156.592 344.047 139.194 344.224 121.797 344.16 C 118.792 344.149 117.222 344.846 115.784 347.706 C 111.403 356.423 103.299 359.43 93.554 356.509 C 90.341 353.905 87.69 351.797 85.039 349.689 C 84.606 348.856 84.47 348.606 84.505 348.265 Z M 161.784 301.291 C 163.104 301.934 263.152 301.418 271.246 301.227 C 274.169 301.158 275.128 302.398 274.767 305.085 C 275.65 309.283 274.258 310.446 270.904 310.161 C 268.588 309.964 167.269 310.058 159.895 310.127 C 155.344 306.278 125.698 278.427 123.039 278.395 C 102.681 278.149 82.319 278.229 61.959 278.208 C 54.972 289.27 49.349 292.766 39.675 291.409 C 29.804 288.894 24.352 281.186 25.121 271.487 C 25.779 263.176 33.006 256.176 41.7 255.735 C 43.537 255.642 45.424 256.519 47.288 256.949 C 53.192 257.818 56.43 261.073 58.856 265.393 C 59.239 266.134 65.82 269.375 68.214 269.37 C 89.293 269.514 109.516 269.276 129.736 269.412 M 282.825 493.993 C 235.575 494.106 188.323 494.088 140.148 494.088 C 144.032 489.618 194.342 420.162 195.269 410.317 C 211.413 409.871 248.211 409.384 251.189 409.227 C 253.918 405.754 261.151 392.763 262.607 389.771 C 257.905 389.061 187.465 388.758 174.218 389.076 C 172.228 389.123 169.768 390.221 168.391 391.66 C 162.21 398.122 156.342 404.883 150.361 411.536 C 146.138 415.937 142.483 419.979 138.828 424.021 C 138.155 424.144 138.122 424.1 138.122 424.1 C 137.334 424.782 134.098 426.058 133.648 426.122 C 131.275 425.999 104.282 426.121 99.915 426.214 C 98.093 427.046 97.239 428.122 96.265 429.077 C 93.099 432.184 89.889 435.247 86.696 438.326 C 78.61 441.309 70.644 439.234 65.93 433.23 C 60.848 426.758 60.641 417.628 65.536 411.064 C 66.613 409.62 68.031 408.431 69.291 407.124 C 81.055 400.426 91.195 404.113 97.377 416.969 C 98.904 417.055 132.507 417.263 132.507 417.263 C 137.424 412.714 141.897 407.976 146.37 403.239 C 153.243 395.846 159.445 388.696 165.886 381.768 C 166.923 380.653 169.022 380.031 170.634 380.023 C 186.1 379.939 261.347 380.149 267.04 380.077 C 269.604 377.553 391.602 160.323 397.784 149.207 C 433.936 213.85 588.309 491.009 589.802 493.974 C 570.36 482.965 550.562 479.979 529.863 481.92 C 527.414 481.957 520.66 482.639 520.301 482.886 C 512.884 484.001 506.157 485.194 499.431 486.388 C 491.69 487.839 484.739 489.321 477.787 490.802 C 472.125 491.401 457.747 493.054 455.776 493.234 C 444.308 493.434 433.618 493.748 422.928 494.062 C 414.978 493.958 347.863 493.903 337.371 493.903 C 341.25 486.382 370.242 430.82 372.985 425.372 C 376.678 416.948 376.678 416.943 385.081 416.935 C 389.08 416.932 454.849 416.914 459.772 416.807 C 452.011 400.712 395.064 298.809 394.377 298.469 M 132.019 218.728 C 127.889 214.554 124.749 214.934 121.648 219.998 C 117.213 227.243 108.802 230.66 101.088 228.353 C 93.051 225.949 87.871 218.778 88.101 210.372 C 88.331 201.98 93.98 195.056 102.143 193.222 C 109.243 191.627 119.456 194.617 122.326 203.599 C 122.799 205.078 125.432 207.018 126.83 206.844 C 132.081 206.192 135.179 208.861 138.148 212.47 C 140.251 215.026 183.693 259.399 183.698 259.218 C 186.883 259.056 194.864 258.766 194.864 258.766 C 194.974 254.576 195.004 250.248 195.033 245.921 C 195.145 244.557 194.819 170.665 194.819 170.665 C 186.4 170.234 178.096 170.385 169.806 170.116 C 167.958 170.056 165.635 168.975 164.419 167.586 C 155.566 157.476 146.836 147.252 138.311 136.864 C 135.973 134.014 133.6 132.806 129.892 132.969 C 123.599 133.244 117.281 132.94 110.973 132.879 C 108.912 132.819 107.761 133.054 106.622 133.005 C 101.482 132.785 97.47 132.886 94.298 138.863 C 90.717 145.61 83.313 147.321 75.629 145.563 C 61.305 141.465 57.849 125.179 68.388 114.284 C 78.9 105.909 90.133 110.329 96.478 120.46 C 97.395 121.924 99.021 122.944 100.32 124.169 C 112.686 124.33 124.302 124.128 135.915 124.249 C 137.563 124.266 139.644 125.469 140.764 126.775 C 149.73 137.23 158.408 147.933 167.455 158.316 C 168.954 160.037 171.765 161.353 174.057 161.502 C 180.669 161.933 187.96 161.819 194.599 161.83 C 195.464 148.963 194.891 135.874 194.952 122.932 C 194.956 121.858 194.852 121.717 194.748 121.575 C 191.904 115.112 188.949 109.165 185.995 103.218 C 182.779 99.696 119.515 41.472 111.401 34.416 C 144.03 34.416 384.828 34.448 422.549 35.104 C 432.365 35.274 459.628 40.64 460.452 40.813 C 474.094 45.117 487.541 47.925 499.599 54.97 C 509.042 60.487 518.943 65.219 528.641 70.3 C 530.987 72.149 532.967 73.404 534.947 74.66 C 540.939 79.515 546.61 83.851 552.281 88.187 C 567.194 100.311 579.074 114.24 590.044 129.013 C 592.666 133.096 595.121 136.527 597.576 139.959 C 598.561 141.783 599.327 142.918 600.093 144.053 C 606.101 156.184 618.375 180.408 618.442 180.725 C 619.561 183.968 620.786 186.931 622.012 189.894 C 625.339 203.94 628.828 217.133 632.145 230.328 C 631.356 230.37 634.301 244.838 634.622 245.325 C 634.506 247.865 634.888 257.079 635.355 258.988 C 635.185 267.339 635.244 274.721 635.304 282.104 C 633.499 295.778 631.938 308.54 630.378 321.303 C 627.068 332.878 624.078 343.744 621.088 354.609 C 611.641 381.107 598.154 404.523 580.833 426.339 C 570.652 408.197 560.787 390.584 550.886 372.991 C 546.734 365.614 542.377 358.348 538.418 350.87 C 537.585 349.298 537.457 346.79 538.075 345.105 C 541.815 334.9 545.865 324.808 549.812 314.679 C 550.209 313.435 553.839 294.791 553.898 293.744 C 554.254 280.357 554.349 267.716 554.445 255.076 C 552.963 246.701 551.478 239.247 549.993 231.794 C 545.262 219.601 535.088 195.771 535.088 195.771 C 533.107 192.177 531.152 189.079 529.196 185.981 C 520.437 175.872 511.839 166.298 503.241 156.724 C 502.286 155.694 500.764 154.123 500.764 154.123 C 499.969 153.691 493.998 148.997 493.998 148.997 C 492.332 147.973 487.628 144.689 487.215 144.514 C 485.457 143.235 481.37 140.947 481.105 140.737 C 475.033 137.458 461.638 130.855 460.991 130.678 C 449.542 127.323 438.561 124.458 427.579 121.594 C 426.474 121.218 421.406 120.686 419.609 120.537 C 417.488 120.2 413.58 120.073 413.399 120.129 C 369.887 119.934 278.532 120.377 275.781 120.84 C 277.562 121.693 276.121 265.566 275.559 267.433 C 273.847 267.711 221.128 267.562 195.843 267.535 C 190.316 267.382 185.703 267.633 181.091 267.619 C 179.908 267.616 178.408 267.093 177.596 266.272 C 170.187 258.779 162.897 251.167 155.573 243.591" style="fill: rgb(20, 69, 213);"/>
  <path opacity="1.000000" stroke="none" d=" M108.938881,202.764435 C113.929398,204.894028 115.872391,208.507751 114.652832,213.281967 C113.615982,217.340942 110.501793,219.739944 106.295540,219.846970 C101.777702,219.961945 98.903114,217.299301 97.555374,213.111847 C95.450134,206.570892 101.065208,201.275543 108.938881,202.764435 z" style="fill: rgb(2, 58, 157);"/>
  <path opacity="1.000000" stroke="none" d=" M47.174164,281.593689 C45.215649,282.218323 43.494709,282.601929 41.381069,283.043304 C40.988369,283.101044 40.600658,282.972137 40.277065,282.692383 C39.635933,282.295013 39.318394,282.177399 39.000854,282.059784 C37.389946,279.336670 34.787563,276.755188 34.374104,273.861023 C33.507820,267.797150 38.680080,264.284424 46.465408,265.243652 C53.693653,270.795868 53.868626,276.195160 47.174164,281.593689 z" style="fill: rgb(0, 41, 114);"/>
</svg>